<?xml version="1.0" encoding="utf-8"?>
<!-- Generator: Adobe Illustrator 19.0.0, SVG Export Plug-In . SVG Version: 6.00 Build 0)  -->
<svg version="1.1" id="图层_1" xmlns="http://www.w3.org/2000/svg" xmlns:xlink="http://www.w3.org/1999/xlink" x="0px" y="0px"
	 viewBox="0 0 92.5 92.5" style="enable-background:new 0 0 92.5 92.5;" xml:space="preserve">
<style type="text/css">
	.st0{fill:#F7B21C;}
	.st1{fill:#FFFFFF;}
</style>
<path id="XMLID_2_" class="st0" d="M46.2,92.5C20.7,92.5,0,71.8,0,46.2C0,20.7,20.7,0,46.2,0s46.2,20.7,46.2,46.2
	C92.5,71.8,71.8,92.5,46.2,92.5z"/>
<g id="XMLID_3_">
	<path id="XMLID_15_" class="st1" d="M50.3,27.5c0-1.3-1.1-2.4-2.4-2.4h-0.7v-0.8c0-0.8-0.6-1.4-1.4-1.4h-6.3
		c-0.8,0-1.4,0.6-1.4,1.4v0.8h-0.7c-1.3,0-2.4,1.1-2.4,2.4v2.4h15.3V27.5z M42.6,26.3c-0.6,0-1.2-0.5-1.2-1.1s0.5-1.1,1.2-1.1
		c0.6,0,1.2,0.5,1.2,1.1S43.3,26.3,42.6,26.3z"/>
	<rect id="XMLID_14_" x="36.8" y="48.1" class="st1" width="11.6" height="1.4"/>
	<rect id="XMLID_13_" x="36.6" y="35.4" class="st1" width="11.6" height="1.4"/>
	<rect id="XMLID_12_" x="36.8" y="43.9" class="st1" width="11.6" height="1.4"/>
	<rect id="XMLID_11_" x="36.6" y="39.6" class="st1" width="11.6" height="1.4"/>
	<path id="XMLID_9_" class="st1" d="M31.7,58.8V31.1h1.8v-3.7c0-0.1,0-0.2,0-0.3h-3.4c-1.3,0-2.4,1.1-2.4,2.4v30.8
		c0,1.3,1.1,2.4,2.4,2.4h14c-0.6-1.2-0.9-2.6-0.9-3.9H31.7z"/>
	<path id="XMLID_7_" class="st1" d="M51.7,31.1h1.8v17.8c1.4,0.1,2.7,0.4,3.9,1.1V29.6c0-1.3-1.1-2.4-2.4-2.4h-3.4
		c0,0.1,0,0.2,0,0.3V31.1z"/>
	<path id="XMLID_4_" class="st1" d="M69.9,71.3l-6-5.5c-0.3-0.3-0.8-0.4-1.2-0.4l-2-1.8c2.3-3.6,1.7-8.5-1.6-11.6
		c-3.7-3.4-9.5-3.2-12.9,0.5c-3.4,3.7-3.2,9.5,0.6,12.9c3.2,2.9,7.9,3.2,11.3,0.9l2,1.8c-0.1,0.5,0.1,0.9,0.4,1.3l6,5.5
		c0.6,0.5,1.5,0.5,2.1-0.1l1.4-1.5C70.6,72.7,70.5,71.8,69.9,71.3z M57.6,62.9c-2.3,2.5-6.2,2.6-8.7,0.3c-2.5-2.3-2.8-6.2-0.5-8.7
		c2.3-2.5,6.2-2.6,8.7-0.3C59.7,56.5,59.9,60.4,57.6,62.9z"/>
</g>
</svg>
