<?xml version="1.0" encoding="utf-8"?>
<!-- Generator: Adobe Illustrator 19.0.0, SVG Export Plug-In . SVG Version: 6.00 Build 0)  -->
<svg version="1.1" id="图层_1" xmlns="http://www.w3.org/2000/svg" xmlns:xlink="http://www.w3.org/1999/xlink" x="0px" y="0px"
	 viewBox="0 0 92.5 92.5" style="enable-background:new 0 0 92.5 92.5;" xml:space="preserve">
<style type="text/css">
	.st0{fill:#F7B21C;}
	.st1{fill:#FFFFFF;}
</style>
<path id="XMLID_2_" class="st0" d="M46.2,92.5C20.7,92.5,0,71.8,0,46.2C0,20.7,20.7,0,46.2,0s46.2,20.7,46.2,46.2
	C92.5,71.8,71.8,92.5,46.2,92.5z"/>
<g id="XMLID_15_">
	<path id="XMLID_160_" class="st1" d="M46.1,51c1-1.5,1.7-3.1,2.1-4.9h2.6v-6.1h-2.6c-0.4-1.8-1.1-3.5-2.1-5.1l1.9-1.9l-4.3-4.3
		l-1.9,1.9c-1.5-1-3.2-1.7-5.1-2.1v-2.3h-6.1v2.4c-1.7,0.4-3.4,1.1-4.8,2l-2-2l-4.3,4.3l2,2c-1,1.5-1.7,3.2-2,5h-2.7v6.1h2.8
		c0.4,1.7,1.1,3.4,2,4.8l-1.9,1.9l4.3,4.3l1.9-1.9c1.4,0.9,3,1.6,4.7,2v2.4h6.1v-2.3c1.8-0.4,3.5-1,5-2l1.8,1.8l4.3-4.3L46.1,51z
		 M33.9,53.3c-5.7,0-10.4-4.6-10.4-10.3c0-5.7,4.7-10.3,10.4-10.3c5.7,0,10.4,4.6,10.4,10.3C44.3,48.7,39.7,53.3,33.9,53.3z"/>
	<path id="XMLID_11_" class="st1" d="M34.8,41.9c-1.6-0.6-2.3-1-2.3-1.6c0-0.5,0.4-1.1,1.6-1.1c1.3,0,2.2,0.4,2.7,0.7l0.6-2.1
		c-0.7-0.3-1.5-0.6-2.7-0.6v-1.6h-1.8v1.8c-2,0.4-3.2,1.7-3.2,3.3c0,1.8,1.4,2.8,3.4,3.4c1.4,0.5,2,0.9,2,1.6c0,0.7-0.7,1.2-1.8,1.2
		c-1.2,0-2.3-0.4-3.1-0.8l-0.6,2.2c0.7,0.4,1.9,0.7,3.2,0.8v1.8h1.9v-1.9c2.2-0.4,3.3-1.8,3.3-3.4C37.9,43.7,37,42.7,34.8,41.9z"/>
	<path id="XMLID_156_" class="st1" d="M66.6,52.6l1.3-1.3l-3-3l-1.3,1.3c-1.1-0.7-2.3-1.2-3.5-1.4v-1.6h-4.2v1.6
		c-1.2,0.3-2.3,0.7-3.3,1.4l-1.4-1.4l-3,3l1.4,1.4c-0.7,1-1.2,2.2-1.4,3.5h-1.9v4.2h1.9c0.3,1.2,0.8,2.3,1.4,3.3L48.3,65l3,3
		l1.3-1.3c1,0.6,2.1,1.1,3.3,1.4v1.7h4.2V68c1.3-0.2,2.4-0.7,3.5-1.4l1.3,1.3l3-3l-1.2-1.2c0.7-1,1.2-2.2,1.5-3.4h1.8v-4.2H68
		C67.8,54.8,67.3,53.7,66.6,52.6z M58.1,65.3c-4,0-7.2-3.2-7.2-7.2c0-3.9,3.2-7.2,7.2-7.2c4,0,7.2,3.2,7.2,7.2
		C65.3,62.1,62.1,65.3,58.1,65.3z"/>
	<path id="XMLID_6_" class="st1" d="M58.7,57.4c-1.1-0.4-1.6-0.7-1.6-1.1c0-0.4,0.3-0.7,1.1-0.7c0.9,0,1.5,0.3,1.9,0.5l0.4-1.5
		c-0.5-0.2-1-0.4-1.9-0.4v-1.1h-1.3v1.2c-1.4,0.3-2.2,1.2-2.2,2.3c0,1.3,0.9,1.9,2.3,2.4c1,0.3,1.4,0.6,1.4,1.1
		c0,0.5-0.5,0.8-1.3,0.8c-0.8,0-1.6-0.3-2.2-0.6l-0.4,1.5c0.5,0.3,1.3,0.5,2.2,0.6v1.2h1.3v-1.3c1.5-0.2,2.3-1.2,2.3-2.4
		C60.9,58.6,60.3,57.9,58.7,57.4z"/>
	<path id="XMLID_17_" class="st1" d="M73.4,41c-0.2-0.7-0.4-1.4-0.8-2l0.8-0.8l-1.7-1.7l-0.8,0.8c-0.6-0.4-1.3-0.7-2-0.8v-0.9h-2.4
		v0.9c-0.7,0.2-1.3,0.4-1.9,0.8l-0.8-0.8L62,38.1l0.8,0.8c-0.4,0.6-0.7,1.3-0.8,2h-1.1v2.4H62c0.2,0.7,0.4,1.3,0.8,1.9L62,46.1
		l1.7,1.7l0.8-0.8c0.6,0.4,1.2,0.6,1.9,0.8v1h2.4v-0.9c0.7-0.1,1.4-0.4,2-0.8l0.7,0.7l1.7-1.7l-0.7-0.7c0.4-0.6,0.7-1.2,0.8-2h1V41
		H73.4z M67.7,46.2c-2.3,0-4.2-1.8-4.2-4.1c0-2.3,1.9-4.1,4.2-4.1c2.3,0,4.2,1.9,4.2,4.1C71.9,44.4,70,46.2,67.7,46.2z"/>
	<path id="XMLID_3_" class="st1" d="M68,41.7c-0.6-0.2-0.9-0.4-0.9-0.6c0-0.2,0.2-0.4,0.6-0.4c0.5,0,0.9,0.2,1.1,0.3l0.2-0.8
		c-0.3-0.1-0.6-0.2-1.1-0.2v-0.7h-0.7v0.7C66.5,40,66,40.5,66,41.2c0,0.7,0.6,1.1,1.3,1.4c0.6,0.2,0.8,0.4,0.8,0.6
		c0,0.3-0.3,0.5-0.7,0.5c-0.5,0-0.9-0.2-1.2-0.3l-0.2,0.9c0.3,0.2,0.8,0.3,1.3,0.3v0.7H68v-0.8c0.9-0.1,1.3-0.7,1.3-1.4
		C69.3,42.4,68.9,42,68,41.7z"/>
</g>
</svg>
