<?xml version="1.0" encoding="utf-8"?>
<!-- Generator: Adobe Illustrator 19.0.0, SVG Export Plug-In . SVG Version: 6.00 Build 0)  -->
<svg version="1.1" id="Layer_2" xmlns="http://www.w3.org/2000/svg" xmlns:xlink="http://www.w3.org/1999/xlink" x="0px" y="0px"
	 viewBox="156 -76 512 512" style="enable-background:new 156 -76 512 512;" xml:space="preserve">
<style type="text/css">
	.st0{fill:#FFFFFF;}
</style>
<g>
	<path class="st0" d="M268.3,322.9l81.2-33.7l19-16.7c5-4.4,12.4-4.1,17.1,0.7l26.5,27.4l26.4-27.4c4.7-4.8,12.1-5.1,17.1-0.7
		l19,16.7l81.2,33.7c9.2,3.8,15.1,18.1,19.1,35.5c29.5-37.7,47.2-85.8,47.2-138.2C622,99.5,528,1.5,412,1.5S202,99.5,202,220.3
		c0,52.4,17.7,100.5,47.2,138.2C253.1,341.1,259.1,326.7,268.3,322.9z M412,63.1c53.8,0,81.2,28.4,81.2,83.2
		C493.3,269.4,412,266,412,266c-49.9,0.8-80.5-44.7-81.3-119.7C330.2,91.5,359.4,63.1,412,63.1z"/>
</g>
</svg>
