<?xml version="1.0" encoding="utf-8"?>
<!-- Generator: Adobe Illustrator 19.0.0, SVG Export Plug-In . SVG Version: 6.00 Build 0)  -->
<svg version="1.1" id="图层_1" xmlns="http://www.w3.org/2000/svg" xmlns:xlink="http://www.w3.org/1999/xlink" x="0px" y="0px"
	 viewBox="0 0 190.3 47.9" style="enable-background:new 0 0 190.3 47.9;" xml:space="preserve">
<style type="text/css">
	.st0{clip-path:url(#XMLID_10_);}
	.st1{clip-path:url(#XMLID_11_);fill:#F8B31D;}
</style>
<g id="XMLID_3_">
	<defs>
		<path id="XMLID_4_" d="M105.9,30.1c4.2,0,7.7-3.4,7.7-7.6s-3.4-7.6-7.7-7.6c-4.2,0-7.7,3.4-7.7,7.6S101.6,30.1,105.9,30.1z
			 M111.7,31.4c-1.7,1-3.6,1.6-5.7,1.6c-5.9,0-10.8-4.8-10.8-10.6s4.8-10.6,10.8-10.6s10.8,4.8,10.8,10.6c0,2.1-0.6,4-1.7,5.7
			l4.1,4.1c0.9,0.9,0.9,2.4,0,3.3c-0.9,0.9-2.4,0.9-3.3,0L111.7,31.4z"/>
	</defs>
	<clipPath id="XMLID_10_">
		<use xlink:href="#XMLID_4_"  style="overflow:visible;"/>
	</clipPath>
	<g id="XMLID_7_" class="st0">
		<defs>
			<rect id="XMLID_8_" x="-881.8" y="-6.2" width="1024" height="1050"/>
		</defs>
		<clipPath id="XMLID_11_">
			<use xlink:href="#XMLID_8_"  style="overflow:visible;"/>
		</clipPath>
		<rect id="XMLID_9_" x="90.2" y="6.8" class="st1" width="34.7" height="34.4"/>
	</g>
</g>
</svg>
