<?xml version="1.0" encoding="utf-8"?>
<!-- Generator: Adobe Illustrator 19.0.0, SVG Export Plug-In . SVG Version: 6.00 Build 0)  -->
<svg version="1.1" id="图层_1" xmlns="http://www.w3.org/2000/svg" xmlns:xlink="http://www.w3.org/1999/xlink" x="0px" y="0px"
	 viewBox="67.7 167.9 31.9 32" style="enable-background:new 67.7 167.9 31.9 32;" xml:space="preserve">
<style type="text/css">
	.st0{clip-path:url(#SVGID_2_);fill:#F8B31D;}
</style>
<g>
	<defs>
		<path id="SVGID_1_" d="M82.6,190.1c4.2,0,7.7-3.4,7.7-7.6c0-4.2-3.4-7.6-7.7-7.6c-4.2,0-7.7,3.4-7.7,7.6
			C74.9,186.7,78.3,190.1,82.6,190.1z M88.4,191.4c-1.7,1-3.6,1.6-5.7,1.6c-5.9,0-10.8-4.8-10.8-10.6s4.8-10.6,10.8-10.6
			s10.8,4.8,10.8,10.6c0,2.1-0.6,4-1.7,5.7l4.1,4.1c0.9,0.9,0.9,2.4,0,3.3c-0.9,0.9-2.4,0.9-3.3,0L88.4,191.4z"/>
	</defs>
	<clipPath id="SVGID_2_">
		<use xlink:href="#SVGID_1_"  style="overflow:visible;"/>
	</clipPath>
	<rect x="72" y="171.8" class="st0" width="24.5" height="24.4"/>
</g>
</svg>
